<svg width="26" height="32" viewBox="0 0 26 32" fill="none" xmlns="http://www.w3.org/2000/svg">
<path d="M12.7828 0.27832C9.54135 0.282144 6.43375 1.5715 4.14169 3.86357C1.84963 6.15563 0.560266 9.26323 0.556442 12.5047C0.55256 15.1536 1.41783 17.7307 3.0195 19.8405C3.0195 19.8405 3.35295 20.2796 3.40741 20.3429L12.7828 31.4L22.1627 20.3374C22.2116 20.2784 22.5461 19.8405 22.5461 19.8405L22.5472 19.8372C24.1481 17.7283 25.013 15.1524 25.0092 12.5047C25.0054 9.26323 23.716 6.15563 21.4239 3.86357C19.1319 1.5715 16.0243 0.282144 12.7828 0.27832ZM12.7828 16.9506C11.9035 16.9506 11.0439 16.6899 10.3128 16.2014C9.58165 15.7128 9.0118 15.0185 8.67529 14.2061C8.33879 13.3937 8.25074 12.4998 8.42229 11.6373C8.59384 10.7749 9.01727 9.98271 9.63905 9.36093C10.2608 8.73915 11.053 8.31572 11.9155 8.14417C12.7779 7.97262 13.6718 8.06067 14.4842 8.39717C15.2966 8.73367 15.991 9.30352 16.4795 10.0347C16.968 10.7658 17.2288 11.6254 17.2288 12.5047C17.2273 13.6834 16.7584 14.8134 15.925 15.6468C15.0915 16.4803 13.9615 16.9492 12.7828 16.9506Z" fill="#005F9E"/>
<circle cx="12.7828" cy="12.5073" r="4.51003" fill="white"/>
</svg>
