<svg width="25" height="32" viewBox="0 0 25 32" fill="none" xmlns="http://www.w3.org/2000/svg">
<path d="M12.6827 0.27832C9.44119 0.282144 6.33359 1.5715 4.04153 3.86357C1.74947 6.15563 0.460107 9.26323 0.456284 12.5047C0.452402 15.1536 1.31767 17.7307 2.91934 19.8405C2.91934 19.8405 3.25279 20.2796 3.30725 20.3429L12.6827 31.4L22.0625 20.3374C22.1114 20.2784 22.446 19.8405 22.446 19.8405L22.4471 19.8372C24.048 17.7283 24.9128 15.1524 24.909 12.5047C24.9052 9.26323 23.6158 6.15563 21.3238 3.86357C19.0317 1.5715 15.9241 0.282144 12.6827 0.27832ZM12.6827 16.9506C11.8033 16.9506 10.9438 16.6899 10.2126 16.2014C9.48149 15.7128 8.91164 15.0185 8.57513 14.2061C8.23863 13.3937 8.15058 12.4998 8.32213 11.6373C8.49368 10.7749 8.91712 9.98271 9.53889 9.36093C10.1607 8.73915 10.9529 8.31572 11.8153 8.14417C12.6777 7.97262 13.5717 8.06066 14.3841 8.39717C15.1964 8.73367 15.8908 9.30352 16.3793 10.0347C16.8679 10.7658 17.1286 11.6254 17.1286 12.5047C17.1271 13.6834 16.6583 14.8134 15.8248 15.6468C14.9913 16.4803 13.8613 16.9492 12.6827 16.9506Z" fill="#1F6822"/>
<circle cx="12.6827" cy="12.5073" r="4.51003" fill="white"/>
</svg>
